<svg width="15" height="17" viewBox="0 0 15 17" fill="none" xmlns="http://www.w3.org/2000/svg">
<g clip-path="url(#clip0_8_20)">
<path d="M4.3694 12.3821C3.68278 12.3821 3.12724 13.0012 3.12724 13.7579C3.12724 14.5146 3.68278 15.1337 4.3694 15.1337C5.05602 15.1337 5.6178 14.5146 5.6178 13.7579C5.6178 13.0012 5.05602 12.3821 4.3694 12.3821ZM0.6242 1.3758V2.75159H1.8726L4.11972 7.9727L3.27705 9.65803C3.17718 9.85064 3.121 10.0776 3.121 10.3184C3.121 11.0751 3.68278 11.6942 4.3694 11.6942H11.8598V10.3184H4.63156C4.54417 10.3184 4.47551 10.2427 4.47551 10.1464L4.49424 10.0639L5.05602 8.94262H9.70631C10.1745 8.94262 10.5864 8.66059 10.7987 8.23409L13.0333 3.76967C13.0832 3.67336 13.1082 3.55642 13.1082 3.43948C13.1082 3.06114 12.8273 2.75159 12.484 2.75159H3.25208L2.66533 1.3758H0.6242ZM10.6114 12.3821C9.92478 12.3821 9.36924 13.0012 9.36924 13.7579C9.36924 14.5146 9.92478 15.1337 10.6114 15.1337C11.298 15.1337 11.8598 14.5146 11.8598 13.7579C11.8598 13.0012 11.298 12.3821 10.6114 12.3821Z" fill="#D9D9D9"/>
</g>
<defs>
<clipPath id="clip0_8_20">
<rect width="14.9808" height="16.5094" fill="white"/>
</clipPath>
</defs>
</svg>
